<svg xmlns="http://www.w3.org/2000/svg" xmlns:xlink="http://www.w3.org/1999/xlink" width="120" zoomAndPan="magnify" viewBox="0 0 90 30.000001" height="40" preserveAspectRatio="xMidYMid meet" version="1.2"><defs/><g id="9507521fbc"><g style="fill:#000000;fill-opacity:0.1608;"><g transform="translate(2.405699, 21.973502)"><path style="stroke:none" d="M 11.625 -1.078125 C 11.625 -0.265625 11.328125 0.140625 10.734375 0.140625 C 10.429688 0.140625 10.210938 0.046875 10.078125 -0.140625 C 9.953125 -0.335938 9.890625 -0.65625 9.890625 -1.09375 L 9.890625 -4.796875 C 9.890625 -5.203125 9.875 -5.523438 9.84375 -5.765625 C 9.8125 -6.003906 9.734375 -6.1875 9.609375 -6.3125 C 9.492188 -6.445312 9.328125 -6.535156 9.109375 -6.578125 C 8.898438 -6.617188 8.625 -6.640625 8.28125 -6.640625 L 5.671875 -6.640625 C 5.367188 -6.640625 5.117188 -6.617188 4.921875 -6.578125 C 4.734375 -6.535156 4.585938 -6.457031 4.484375 -6.34375 C 4.378906 -6.238281 4.304688 -6.082031 4.265625 -5.875 C 4.222656 -5.675781 4.203125 -5.414062 4.203125 -5.09375 L 4.203125 -1.875 C 4.203125 -1.519531 4.175781 -1.222656 4.125 -0.984375 C 4.082031 -0.742188 4 -0.550781 3.875 -0.40625 C 3.75 -0.257812 3.585938 -0.15625 3.390625 -0.09375 C 3.191406 -0.03125 2.941406 0 2.640625 0 C 2.003906 0 1.566406 -0.117188 1.328125 -0.359375 C 1.085938 -0.609375 0.96875 -1.046875 0.96875 -1.671875 L 0.96875 -11.640625 C 0.96875 -12.078125 0.988281 -12.429688 1.03125 -12.703125 C 1.082031 -12.984375 1.179688 -13.195312 1.328125 -13.34375 C 1.484375 -13.5 1.691406 -13.601562 1.953125 -13.65625 C 2.210938 -13.71875 2.566406 -13.75 3.015625 -13.75 L 8.03125 -13.75 C 8.457031 -13.75 8.804688 -13.722656 9.078125 -13.671875 C 9.359375 -13.628906 9.570312 -13.535156 9.71875 -13.390625 C 9.875 -13.253906 9.976562 -13.0625 10.03125 -12.8125 C 10.09375 -12.570312 10.125 -12.257812 10.125 -11.875 L 10.125 -9.875 C 10.125 -9.613281 10.128906 -9.398438 10.140625 -9.234375 C 10.148438 -9.078125 10.179688 -8.945312 10.234375 -8.84375 C 10.285156 -8.75 10.351562 -8.664062 10.4375 -8.59375 C 10.53125 -8.519531 10.648438 -8.457031 10.796875 -8.40625 C 10.972656 -8.34375 11.113281 -8.273438 11.21875 -8.203125 C 11.332031 -8.128906 11.421875 -8.035156 11.484375 -7.921875 C 11.546875 -7.816406 11.582031 -7.675781 11.59375 -7.5 C 11.613281 -7.332031 11.625 -7.113281 11.625 -6.84375 Z M 3.953125 -12 C 3.679688 -12 3.46875 -11.972656 3.3125 -11.921875 C 3.15625 -11.867188 3.023438 -11.773438 2.921875 -11.640625 C 2.828125 -11.503906 2.765625 -11.304688 2.734375 -11.046875 C 2.710938 -10.796875 2.703125 -10.472656 2.703125 -10.078125 C 2.703125 -9.722656 2.71875 -9.429688 2.75 -9.203125 C 2.78125 -8.984375 2.84375 -8.8125 2.9375 -8.6875 C 3.03125 -8.570312 3.15625 -8.488281 3.3125 -8.4375 C 3.476562 -8.394531 3.691406 -8.375 3.953125 -8.375 L 6.953125 -8.375 C 7.253906 -8.375 7.5 -8.390625 7.6875 -8.421875 C 7.875 -8.460938 8.015625 -8.546875 8.109375 -8.671875 C 8.210938 -8.796875 8.28125 -8.972656 8.3125 -9.203125 C 8.351562 -9.441406 8.375 -9.757812 8.375 -10.15625 C 8.375 -10.539062 8.351562 -10.851562 8.3125 -11.09375 C 8.28125 -11.332031 8.210938 -11.515625 8.109375 -11.640625 C 8.003906 -11.773438 7.859375 -11.867188 7.671875 -11.921875 C 7.492188 -11.972656 7.253906 -12 6.953125 -12 Z M 3.953125 -12 "/></g></g><g style="fill:#000000;fill-opacity:0.1608;"><g transform="translate(14.700729, 21.973502)"><path style="stroke:none" d="M 4.1875 -3.484375 C 4.1875 -3.085938 4.203125 -2.773438 4.234375 -2.546875 C 4.265625 -2.316406 4.335938 -2.144531 4.453125 -2.03125 C 4.578125 -1.914062 4.75 -1.835938 4.96875 -1.796875 C 5.195312 -1.765625 5.515625 -1.75 5.921875 -1.75 L 8.0625 -1.75 C 8.550781 -1.75 8.898438 -1.679688 9.109375 -1.546875 C 9.316406 -1.421875 9.421875 -1.203125 9.421875 -0.890625 C 9.421875 -0.566406 9.316406 -0.335938 9.109375 -0.203125 C 8.898438 -0.0664062 8.554688 0 8.078125 0 L 2.828125 0 C 2.460938 0 2.160156 -0.0234375 1.921875 -0.078125 C 1.679688 -0.140625 1.488281 -0.234375 1.34375 -0.359375 C 1.207031 -0.492188 1.109375 -0.671875 1.046875 -0.890625 C 0.992188 -1.109375 0.96875 -1.378906 0.96875 -1.703125 L 0.96875 -11.765625 C 0.96875 -12.160156 0.988281 -12.488281 1.03125 -12.75 C 1.082031 -13.019531 1.175781 -13.222656 1.3125 -13.359375 C 1.457031 -13.503906 1.648438 -13.601562 1.890625 -13.65625 C 2.128906 -13.71875 2.441406 -13.75 2.828125 -13.75 L 8.3125 -13.75 C 9.03125 -13.75 9.390625 -13.453125 9.390625 -12.859375 C 9.390625 -12.296875 9.03125 -12.015625 8.3125 -12.015625 L 4.203125 -12.015625 C 3.867188 -12.015625 3.601562 -11.992188 3.40625 -11.953125 C 3.207031 -11.910156 3.054688 -11.820312 2.953125 -11.6875 C 2.847656 -11.550781 2.78125 -11.351562 2.75 -11.09375 C 2.71875 -10.832031 2.703125 -10.488281 2.703125 -10.0625 C 2.703125 -9.71875 2.71875 -9.429688 2.75 -9.203125 C 2.78125 -8.984375 2.84375 -8.8125 2.9375 -8.6875 C 3.03125 -8.570312 3.15625 -8.492188 3.3125 -8.453125 C 3.46875 -8.410156 3.671875 -8.390625 3.921875 -8.390625 L 7.796875 -8.390625 C 8.148438 -8.390625 8.394531 -8.378906 8.53125 -8.359375 C 8.664062 -8.347656 8.789062 -8.332031 8.90625 -8.3125 C 9.050781 -8.25 9.171875 -8.144531 9.265625 -8 C 9.367188 -7.863281 9.421875 -7.703125 9.421875 -7.515625 C 9.421875 -7.253906 9.332031 -7.046875 9.15625 -6.890625 C 8.988281 -6.734375 8.765625 -6.65625 8.484375 -6.65625 L 5.796875 -6.65625 C 5.421875 -6.65625 5.125 -6.632812 4.90625 -6.59375 C 4.695312 -6.5625 4.535156 -6.472656 4.421875 -6.328125 C 4.316406 -6.191406 4.25 -5.984375 4.21875 -5.703125 C 4.195312 -5.421875 4.1875 -5.035156 4.1875 -4.546875 Z M 4.1875 -3.484375 "/></g></g><g style="fill:#000000;fill-opacity:0.1608;"><g transform="translate(24.792126, 21.973502)"><path style="stroke:none" d="M 15.5625 -1.03125 C 15.5625 -0.25 15.265625 0.140625 14.671875 0.140625 C 14.109375 0.140625 13.828125 -0.265625 13.828125 -1.078125 L 13.828125 -10.25 C 13.828125 -10.65625 13.804688 -10.972656 13.765625 -11.203125 C 13.734375 -11.441406 13.660156 -11.625 13.546875 -11.75 C 13.441406 -11.875 13.273438 -11.945312 13.046875 -11.96875 C 12.816406 -12 12.507812 -12.015625 12.125 -12.015625 L 11.109375 -12.015625 C 10.765625 -12.015625 10.492188 -11.992188 10.296875 -11.953125 C 10.097656 -11.910156 9.941406 -11.828125 9.828125 -11.703125 C 9.722656 -11.578125 9.648438 -11.394531 9.609375 -11.15625 C 9.578125 -10.925781 9.5625 -10.625 9.5625 -10.25 L 9.5625 -1.046875 C 9.5625 -0.253906 9.273438 0.140625 8.703125 0.140625 C 8.378906 0.140625 8.148438 0.0507812 8.015625 -0.125 C 7.878906 -0.3125 7.8125 -0.609375 7.8125 -1.015625 L 7.8125 -10.21875 C 7.8125 -10.601562 7.789062 -10.910156 7.75 -11.140625 C 7.71875 -11.378906 7.648438 -11.5625 7.546875 -11.6875 C 7.453125 -11.820312 7.304688 -11.910156 7.109375 -11.953125 C 6.921875 -11.992188 6.664062 -12.015625 6.34375 -12.015625 L 4.21875 -12.015625 C 3.914062 -12.015625 3.664062 -11.992188 3.46875 -11.953125 C 3.28125 -11.910156 3.128906 -11.828125 3.015625 -11.703125 C 2.910156 -11.578125 2.835938 -11.410156 2.796875 -11.203125 C 2.753906 -11.003906 2.734375 -10.738281 2.734375 -10.40625 L 2.734375 -9.75 C 2.734375 -9.507812 2.742188 -9.320312 2.765625 -9.1875 C 2.785156 -9.050781 2.820312 -8.9375 2.875 -8.84375 C 2.925781 -8.75 3 -8.671875 3.09375 -8.609375 C 3.195312 -8.546875 3.332031 -8.476562 3.5 -8.40625 C 3.789062 -8.300781 3.976562 -8.15625 4.0625 -7.96875 C 4.15625 -7.789062 4.207031 -7.488281 4.21875 -7.0625 L 4.21875 -1.859375 C 4.21875 -1.148438 4.101562 -0.660156 3.875 -0.390625 C 3.644531 -0.128906 3.21875 0 2.59375 0 C 1.976562 0 1.550781 -0.128906 1.3125 -0.390625 C 1.082031 -0.660156 0.96875 -1.160156 0.96875 -1.890625 L 0.96875 -11.734375 C 0.96875 -12.148438 0.992188 -12.488281 1.046875 -12.75 C 1.109375 -13.019531 1.210938 -13.222656 1.359375 -13.359375 C 1.515625 -13.503906 1.726562 -13.601562 2 -13.65625 C 2.269531 -13.71875 2.628906 -13.75 3.078125 -13.75 L 13.515625 -13.75 C 13.941406 -13.75 14.289062 -13.722656 14.5625 -13.671875 C 14.832031 -13.628906 15.039062 -13.53125 15.1875 -13.375 C 15.34375 -13.226562 15.441406 -13.015625 15.484375 -12.734375 C 15.535156 -12.460938 15.5625 -12.097656 15.5625 -11.640625 Z M 15.5625 -1.03125 "/></g></g><g style="fill:#000000;fill-opacity:0.1608;"><g transform="translate(41.267885, 21.973502)"><path style="stroke:none" d="M 4.1875 -1.4375 C 4.1875 -0.9375 4.054688 -0.570312 3.796875 -0.34375 C 3.546875 -0.113281 3.140625 0 2.578125 0 C 1.992188 0 1.578125 -0.109375 1.328125 -0.328125 C 1.085938 -0.546875 0.96875 -0.914062 0.96875 -1.4375 L 0.96875 -12.75 C 0.96875 -13.457031 1.265625 -13.8125 1.859375 -13.8125 C 2.398438 -13.8125 2.671875 -13.445312 2.671875 -12.71875 L 2.671875 -10.09375 C 2.671875 -9.789062 2.675781 -9.539062 2.6875 -9.34375 C 2.707031 -9.15625 2.738281 -9.003906 2.78125 -8.890625 C 2.820312 -8.785156 2.882812 -8.695312 2.96875 -8.625 C 3.050781 -8.5625 3.160156 -8.503906 3.296875 -8.453125 L 3.5 -8.375 C 3.757812 -8.257812 3.9375 -8.125 4.03125 -7.96875 C 4.132812 -7.8125 4.1875 -7.5625 4.1875 -7.21875 Z M 4.1875 -1.4375 "/></g></g><g style="fill:#000000;fill-opacity:0.1608;"><g transform="translate(46.128228, 21.973502)"><path style="stroke:none" d="M 11.171875 -1.09375 C 11.171875 -0.65625 11.101562 -0.335938 10.96875 -0.140625 C 10.84375 0.046875 10.625 0.140625 10.3125 0.140625 C 9.988281 0.140625 9.757812 0.046875 9.625 -0.140625 C 9.5 -0.335938 9.4375 -0.660156 9.4375 -1.109375 L 9.4375 -10.484375 C 9.4375 -10.804688 9.414062 -11.066406 9.375 -11.265625 C 9.332031 -11.460938 9.25 -11.613281 9.125 -11.71875 C 9 -11.832031 8.828125 -11.910156 8.609375 -11.953125 C 8.390625 -11.992188 8.101562 -12.015625 7.75 -12.015625 L 4.28125 -12.015625 C 3.96875 -12.015625 3.707031 -11.992188 3.5 -11.953125 C 3.289062 -11.910156 3.128906 -11.84375 3.015625 -11.75 C 2.898438 -11.65625 2.820312 -11.523438 2.78125 -11.359375 C 2.738281 -11.191406 2.71875 -10.984375 2.71875 -10.734375 L 2.71875 -9.96875 C 2.71875 -9.46875 2.75 -9.113281 2.8125 -8.90625 C 2.882812 -8.707031 3.039062 -8.5625 3.28125 -8.46875 L 3.5 -8.375 C 3.78125 -8.257812 3.96875 -8.101562 4.0625 -7.90625 C 4.15625 -7.71875 4.203125 -7.382812 4.203125 -6.90625 L 4.203125 -2.015625 C 4.203125 -1.617188 4.175781 -1.289062 4.125 -1.03125 C 4.082031 -0.769531 4 -0.5625 3.875 -0.40625 C 3.757812 -0.257812 3.597656 -0.15625 3.390625 -0.09375 C 3.191406 -0.03125 2.9375 0 2.625 0 C 2.15625 0 1.800781 -0.0625 1.5625 -0.1875 C 1.320312 -0.320312 1.160156 -0.523438 1.078125 -0.796875 C 1.035156 -0.921875 1.003906 -1.078125 0.984375 -1.265625 C 0.972656 -1.453125 0.96875 -1.722656 0.96875 -2.078125 L 0.96875 -11.640625 C 0.96875 -12.078125 0.988281 -12.429688 1.03125 -12.703125 C 1.082031 -12.984375 1.175781 -13.195312 1.3125 -13.34375 C 1.457031 -13.5 1.65625 -13.601562 1.90625 -13.65625 C 2.15625 -13.71875 2.484375 -13.75 2.890625 -13.75 L 9.09375 -13.75 C 9.519531 -13.75 9.863281 -13.722656 10.125 -13.671875 C 10.394531 -13.628906 10.609375 -13.535156 10.765625 -13.390625 C 10.921875 -13.253906 11.023438 -13.0625 11.078125 -12.8125 C 11.140625 -12.570312 11.171875 -12.257812 11.171875 -11.875 Z M 11.171875 -1.09375 "/></g></g><g style="fill:#000000;fill-opacity:0.1608;"><g transform="translate(58.237908, 21.973502)"><path style="stroke:none" d="M 4.1875 -1.4375 C 4.1875 -0.9375 4.054688 -0.570312 3.796875 -0.34375 C 3.546875 -0.113281 3.140625 0 2.578125 0 C 1.992188 0 1.578125 -0.109375 1.328125 -0.328125 C 1.085938 -0.546875 0.96875 -0.914062 0.96875 -1.4375 L 0.96875 -12.75 C 0.96875 -13.457031 1.265625 -13.8125 1.859375 -13.8125 C 2.398438 -13.8125 2.671875 -13.445312 2.671875 -12.71875 L 2.671875 -10.09375 C 2.671875 -9.789062 2.675781 -9.539062 2.6875 -9.34375 C 2.707031 -9.15625 2.738281 -9.003906 2.78125 -8.890625 C 2.820312 -8.785156 2.882812 -8.695312 2.96875 -8.625 C 3.050781 -8.5625 3.160156 -8.503906 3.296875 -8.453125 L 3.5 -8.375 C 3.757812 -8.257812 3.9375 -8.125 4.03125 -7.96875 C 4.132812 -7.8125 4.1875 -7.5625 4.1875 -7.21875 Z M 4.1875 -1.4375 "/></g></g><g style="fill:#000000;fill-opacity:0.1608;"><g transform="translate(63.098251, 21.973502)"><path style="stroke:none" d="M 11.171875 -1.09375 C 11.171875 -0.65625 11.101562 -0.335938 10.96875 -0.140625 C 10.84375 0.046875 10.625 0.140625 10.3125 0.140625 C 9.988281 0.140625 9.757812 0.046875 9.625 -0.140625 C 9.5 -0.335938 9.4375 -0.660156 9.4375 -1.109375 L 9.4375 -10.484375 C 9.4375 -10.804688 9.414062 -11.066406 9.375 -11.265625 C 9.332031 -11.460938 9.25 -11.613281 9.125 -11.71875 C 9 -11.832031 8.828125 -11.910156 8.609375 -11.953125 C 8.390625 -11.992188 8.101562 -12.015625 7.75 -12.015625 L 4.28125 -12.015625 C 3.96875 -12.015625 3.707031 -11.992188 3.5 -11.953125 C 3.289062 -11.910156 3.128906 -11.84375 3.015625 -11.75 C 2.898438 -11.65625 2.820312 -11.523438 2.78125 -11.359375 C 2.738281 -11.191406 2.71875 -10.984375 2.71875 -10.734375 L 2.71875 -9.96875 C 2.71875 -9.46875 2.75 -9.113281 2.8125 -8.90625 C 2.882812 -8.707031 3.039062 -8.5625 3.28125 -8.46875 L 3.5 -8.375 C 3.78125 -8.257812 3.96875 -8.101562 4.0625 -7.90625 C 4.15625 -7.71875 4.203125 -7.382812 4.203125 -6.90625 L 4.203125 -2.015625 C 4.203125 -1.617188 4.175781 -1.289062 4.125 -1.03125 C 4.082031 -0.769531 4 -0.5625 3.875 -0.40625 C 3.757812 -0.257812 3.597656 -0.15625 3.390625 -0.09375 C 3.191406 -0.03125 2.9375 0 2.625 0 C 2.15625 0 1.800781 -0.0625 1.5625 -0.1875 C 1.320312 -0.320312 1.160156 -0.523438 1.078125 -0.796875 C 1.035156 -0.921875 1.003906 -1.078125 0.984375 -1.265625 C 0.972656 -1.453125 0.96875 -1.722656 0.96875 -2.078125 L 0.96875 -11.640625 C 0.96875 -12.078125 0.988281 -12.429688 1.03125 -12.703125 C 1.082031 -12.984375 1.175781 -13.195312 1.3125 -13.34375 C 1.457031 -13.5 1.65625 -13.601562 1.90625 -13.65625 C 2.15625 -13.71875 2.484375 -13.75 2.890625 -13.75 L 9.09375 -13.75 C 9.519531 -13.75 9.863281 -13.722656 10.125 -13.671875 C 10.394531 -13.628906 10.609375 -13.535156 10.765625 -13.390625 C 10.921875 -13.253906 11.023438 -13.0625 11.078125 -12.8125 C 11.140625 -12.570312 11.171875 -12.257812 11.171875 -11.875 Z M 11.171875 -1.09375 "/></g></g><g style="fill:#000000;fill-opacity:0.1608;"><g transform="translate(75.207931, 21.973502)"><path style="stroke:none" d="M 11.375 -1.765625 C 11.375 -1.410156 11.34375 -1.117188 11.28125 -0.890625 C 11.21875 -0.671875 11.113281 -0.492188 10.96875 -0.359375 C 10.832031 -0.234375 10.640625 -0.140625 10.390625 -0.078125 C 10.140625 -0.0234375 9.828125 0 9.453125 0 L 3.078125 0 C 2.648438 0 2.296875 -0.0234375 2.015625 -0.078125 C 1.742188 -0.140625 1.53125 -0.238281 1.375 -0.375 C 1.226562 -0.507812 1.125 -0.695312 1.0625 -0.9375 C 1 -1.1875 0.96875 -1.515625 0.96875 -1.921875 L 0.96875 -11.953125 C 0.96875 -12.640625 1.097656 -13.109375 1.359375 -13.359375 C 1.617188 -13.617188 2.113281 -13.75 2.84375 -13.75 L 9.4375 -13.75 C 9.832031 -13.75 10.15625 -13.71875 10.40625 -13.65625 C 10.664062 -13.601562 10.867188 -13.507812 11.015625 -13.375 C 11.160156 -13.238281 11.257812 -13.039062 11.3125 -12.78125 C 11.363281 -12.53125 11.390625 -12.210938 11.390625 -11.828125 L 11.390625 -10.796875 C 11.390625 -9.941406 11.101562 -9.515625 10.53125 -9.515625 C 10.238281 -9.515625 10.023438 -9.597656 9.890625 -9.765625 C 9.753906 -9.941406 9.679688 -10.234375 9.671875 -10.640625 C 9.648438 -10.921875 9.625 -11.148438 9.59375 -11.328125 C 9.5625 -11.515625 9.492188 -11.65625 9.390625 -11.75 C 9.285156 -11.84375 9.132812 -11.90625 8.9375 -11.9375 C 8.738281 -11.976562 8.472656 -12 8.140625 -12 L 7.5 -12.015625 L 4.328125 -12.015625 C 3.953125 -12.015625 3.65625 -11.992188 3.4375 -11.953125 C 3.226562 -11.910156 3.066406 -11.8125 2.953125 -11.65625 C 2.847656 -11.507812 2.78125 -11.296875 2.75 -11.015625 C 2.726562 -10.734375 2.71875 -10.34375 2.71875 -9.84375 C 2.71875 -9.601562 2.722656 -9.40625 2.734375 -9.25 C 2.753906 -9.101562 2.785156 -8.976562 2.828125 -8.875 C 2.878906 -8.78125 2.945312 -8.703125 3.03125 -8.640625 C 3.125 -8.578125 3.25 -8.515625 3.40625 -8.453125 C 3.625 -8.335938 3.773438 -8.25 3.859375 -8.1875 C 3.953125 -8.125 4.019531 -8.039062 4.0625 -7.9375 C 4.15625 -7.757812 4.203125 -7.53125 4.203125 -7.25 L 4.203125 -3.4375 C 4.203125 -2.875 4.242188 -2.484375 4.328125 -2.265625 C 4.410156 -2.054688 4.582031 -1.921875 4.84375 -1.859375 C 4.957031 -1.828125 5.101562 -1.800781 5.28125 -1.78125 C 5.457031 -1.769531 5.75 -1.757812 6.15625 -1.75 C 6.34375 -1.75 6.515625 -1.75 6.671875 -1.75 C 6.835938 -1.75 7 -1.742188 7.15625 -1.734375 L 8.125 -1.734375 C 8.476562 -1.734375 8.757812 -1.753906 8.96875 -1.796875 C 9.175781 -1.835938 9.328125 -1.945312 9.421875 -2.125 C 9.523438 -2.300781 9.585938 -2.570312 9.609375 -2.9375 C 9.628906 -3.300781 9.640625 -3.804688 9.640625 -4.453125 C 9.640625 -4.921875 9.628906 -5.296875 9.609375 -5.578125 C 9.585938 -5.859375 9.535156 -6.070312 9.453125 -6.21875 C 9.378906 -6.363281 9.265625 -6.460938 9.109375 -6.515625 C 8.953125 -6.566406 8.753906 -6.597656 8.515625 -6.609375 L 8.25 -6.640625 C 7.84375 -6.660156 7.554688 -6.734375 7.390625 -6.859375 C 7.234375 -6.992188 7.15625 -7.207031 7.15625 -7.5 C 7.15625 -8.09375 7.566406 -8.390625 8.390625 -8.390625 L 9.671875 -8.390625 C 10.328125 -8.390625 10.773438 -8.257812 11.015625 -8 C 11.253906 -7.738281 11.375 -7.242188 11.375 -6.515625 Z M 11.375 -1.765625 "/></g></g><g style="fill:#53ae94;fill-opacity:1;"><g transform="translate(2.405699, 20.685486)"><path style="stroke:none" d="M 11.625 -1.078125 C 11.625 -0.265625 11.328125 0.140625 10.734375 0.140625 C 10.429688 0.140625 10.210938 0.046875 10.078125 -0.140625 C 9.953125 -0.335938 9.890625 -0.65625 9.890625 -1.09375 L 9.890625 -4.796875 C 9.890625 -5.203125 9.875 -5.523438 9.84375 -5.765625 C 9.8125 -6.003906 9.734375 -6.1875 9.609375 -6.3125 C 9.492188 -6.445312 9.328125 -6.535156 9.109375 -6.578125 C 8.898438 -6.617188 8.625 -6.640625 8.28125 -6.640625 L 5.671875 -6.640625 C 5.367188 -6.640625 5.117188 -6.617188 4.921875 -6.578125 C 4.734375 -6.535156 4.585938 -6.457031 4.484375 -6.34375 C 4.378906 -6.238281 4.304688 -6.082031 4.265625 -5.875 C 4.222656 -5.675781 4.203125 -5.414062 4.203125 -5.09375 L 4.203125 -1.875 C 4.203125 -1.519531 4.175781 -1.222656 4.125 -0.984375 C 4.082031 -0.742188 4 -0.550781 3.875 -0.40625 C 3.75 -0.257812 3.585938 -0.15625 3.390625 -0.09375 C 3.191406 -0.03125 2.941406 0 2.640625 0 C 2.003906 0 1.566406 -0.117188 1.328125 -0.359375 C 1.085938 -0.609375 0.96875 -1.046875 0.96875 -1.671875 L 0.96875 -11.640625 C 0.96875 -12.078125 0.988281 -12.429688 1.03125 -12.703125 C 1.082031 -12.984375 1.179688 -13.195312 1.328125 -13.34375 C 1.484375 -13.5 1.691406 -13.601562 1.953125 -13.65625 C 2.210938 -13.71875 2.566406 -13.75 3.015625 -13.75 L 8.03125 -13.75 C 8.457031 -13.75 8.804688 -13.722656 9.078125 -13.671875 C 9.359375 -13.628906 9.570312 -13.535156 9.71875 -13.390625 C 9.875 -13.253906 9.976562 -13.0625 10.03125 -12.8125 C 10.09375 -12.570312 10.125 -12.257812 10.125 -11.875 L 10.125 -9.875 C 10.125 -9.613281 10.128906 -9.398438 10.140625 -9.234375 C 10.148438 -9.078125 10.179688 -8.945312 10.234375 -8.84375 C 10.285156 -8.75 10.351562 -8.664062 10.4375 -8.59375 C 10.53125 -8.519531 10.648438 -8.457031 10.796875 -8.40625 C 10.972656 -8.34375 11.113281 -8.273438 11.21875 -8.203125 C 11.332031 -8.128906 11.421875 -8.035156 11.484375 -7.921875 C 11.546875 -7.816406 11.582031 -7.675781 11.59375 -7.5 C 11.613281 -7.332031 11.625 -7.113281 11.625 -6.84375 Z M 3.953125 -12 C 3.679688 -12 3.46875 -11.972656 3.3125 -11.921875 C 3.15625 -11.867188 3.023438 -11.773438 2.921875 -11.640625 C 2.828125 -11.503906 2.765625 -11.304688 2.734375 -11.046875 C 2.710938 -10.796875 2.703125 -10.472656 2.703125 -10.078125 C 2.703125 -9.722656 2.71875 -9.429688 2.75 -9.203125 C 2.78125 -8.984375 2.84375 -8.8125 2.9375 -8.6875 C 3.03125 -8.570312 3.15625 -8.488281 3.3125 -8.4375 C 3.476562 -8.394531 3.691406 -8.375 3.953125 -8.375 L 6.953125 -8.375 C 7.253906 -8.375 7.5 -8.390625 7.6875 -8.421875 C 7.875 -8.460938 8.015625 -8.546875 8.109375 -8.671875 C 8.210938 -8.796875 8.28125 -8.972656 8.3125 -9.203125 C 8.351562 -9.441406 8.375 -9.757812 8.375 -10.15625 C 8.375 -10.539062 8.351562 -10.851562 8.3125 -11.09375 C 8.28125 -11.332031 8.210938 -11.515625 8.109375 -11.640625 C 8.003906 -11.773438 7.859375 -11.867188 7.671875 -11.921875 C 7.492188 -11.972656 7.253906 -12 6.953125 -12 Z M 3.953125 -12 "/></g></g><g style="fill:#53ae94;fill-opacity:1;"><g transform="translate(14.700729, 20.685486)"><path style="stroke:none" d="M 4.1875 -3.484375 C 4.1875 -3.085938 4.203125 -2.773438 4.234375 -2.546875 C 4.265625 -2.316406 4.335938 -2.144531 4.453125 -2.03125 C 4.578125 -1.914062 4.75 -1.835938 4.96875 -1.796875 C 5.195312 -1.765625 5.515625 -1.75 5.921875 -1.75 L 8.0625 -1.75 C 8.550781 -1.75 8.898438 -1.679688 9.109375 -1.546875 C 9.316406 -1.421875 9.421875 -1.203125 9.421875 -0.890625 C 9.421875 -0.566406 9.316406 -0.335938 9.109375 -0.203125 C 8.898438 -0.0664062 8.554688 0 8.078125 0 L 2.828125 0 C 2.460938 0 2.160156 -0.0234375 1.921875 -0.078125 C 1.679688 -0.140625 1.488281 -0.234375 1.34375 -0.359375 C 1.207031 -0.492188 1.109375 -0.671875 1.046875 -0.890625 C 0.992188 -1.109375 0.96875 -1.378906 0.96875 -1.703125 L 0.96875 -11.765625 C 0.96875 -12.160156 0.988281 -12.488281 1.03125 -12.75 C 1.082031 -13.019531 1.175781 -13.222656 1.3125 -13.359375 C 1.457031 -13.503906 1.648438 -13.601562 1.890625 -13.65625 C 2.128906 -13.71875 2.441406 -13.75 2.828125 -13.75 L 8.3125 -13.75 C 9.03125 -13.75 9.390625 -13.453125 9.390625 -12.859375 C 9.390625 -12.296875 9.03125 -12.015625 8.3125 -12.015625 L 4.203125 -12.015625 C 3.867188 -12.015625 3.601562 -11.992188 3.40625 -11.953125 C 3.207031 -11.910156 3.054688 -11.820312 2.953125 -11.6875 C 2.847656 -11.550781 2.78125 -11.351562 2.75 -11.09375 C 2.71875 -10.832031 2.703125 -10.488281 2.703125 -10.0625 C 2.703125 -9.71875 2.71875 -9.429688 2.75 -9.203125 C 2.78125 -8.984375 2.84375 -8.8125 2.9375 -8.6875 C 3.03125 -8.570312 3.15625 -8.492188 3.3125 -8.453125 C 3.46875 -8.410156 3.671875 -8.390625 3.921875 -8.390625 L 7.796875 -8.390625 C 8.148438 -8.390625 8.394531 -8.378906 8.53125 -8.359375 C 8.664062 -8.347656 8.789062 -8.332031 8.90625 -8.3125 C 9.050781 -8.25 9.171875 -8.144531 9.265625 -8 C 9.367188 -7.863281 9.421875 -7.703125 9.421875 -7.515625 C 9.421875 -7.253906 9.332031 -7.046875 9.15625 -6.890625 C 8.988281 -6.734375 8.765625 -6.65625 8.484375 -6.65625 L 5.796875 -6.65625 C 5.421875 -6.65625 5.125 -6.632812 4.90625 -6.59375 C 4.695312 -6.5625 4.535156 -6.472656 4.421875 -6.328125 C 4.316406 -6.191406 4.25 -5.984375 4.21875 -5.703125 C 4.195312 -5.421875 4.1875 -5.035156 4.1875 -4.546875 Z M 4.1875 -3.484375 "/></g></g><g style="fill:#53ae94;fill-opacity:1;"><g transform="translate(24.792126, 20.685486)"><path style="stroke:none" d="M 15.5625 -1.03125 C 15.5625 -0.25 15.265625 0.140625 14.671875 0.140625 C 14.109375 0.140625 13.828125 -0.265625 13.828125 -1.078125 L 13.828125 -10.25 C 13.828125 -10.65625 13.804688 -10.972656 13.765625 -11.203125 C 13.734375 -11.441406 13.660156 -11.625 13.546875 -11.75 C 13.441406 -11.875 13.273438 -11.945312 13.046875 -11.96875 C 12.816406 -12 12.507812 -12.015625 12.125 -12.015625 L 11.109375 -12.015625 C 10.765625 -12.015625 10.492188 -11.992188 10.296875 -11.953125 C 10.097656 -11.910156 9.941406 -11.828125 9.828125 -11.703125 C 9.722656 -11.578125 9.648438 -11.394531 9.609375 -11.15625 C 9.578125 -10.925781 9.5625 -10.625 9.5625 -10.25 L 9.5625 -1.046875 C 9.5625 -0.253906 9.273438 0.140625 8.703125 0.140625 C 8.378906 0.140625 8.148438 0.0507812 8.015625 -0.125 C 7.878906 -0.3125 7.8125 -0.609375 7.8125 -1.015625 L 7.8125 -10.21875 C 7.8125 -10.601562 7.789062 -10.910156 7.75 -11.140625 C 7.71875 -11.378906 7.648438 -11.5625 7.546875 -11.6875 C 7.453125 -11.820312 7.304688 -11.910156 7.109375 -11.953125 C 6.921875 -11.992188 6.664062 -12.015625 6.34375 -12.015625 L 4.21875 -12.015625 C 3.914062 -12.015625 3.664062 -11.992188 3.46875 -11.953125 C 3.28125 -11.910156 3.128906 -11.828125 3.015625 -11.703125 C 2.910156 -11.578125 2.835938 -11.410156 2.796875 -11.203125 C 2.753906 -11.003906 2.734375 -10.738281 2.734375 -10.40625 L 2.734375 -9.75 C 2.734375 -9.507812 2.742188 -9.320312 2.765625 -9.1875 C 2.785156 -9.050781 2.820312 -8.9375 2.875 -8.84375 C 2.925781 -8.75 3 -8.671875 3.09375 -8.609375 C 3.195312 -8.546875 3.332031 -8.476562 3.5 -8.40625 C 3.789062 -8.300781 3.976562 -8.15625 4.0625 -7.96875 C 4.15625 -7.789062 4.207031 -7.488281 4.21875 -7.0625 L 4.21875 -1.859375 C 4.21875 -1.148438 4.101562 -0.660156 3.875 -0.390625 C 3.644531 -0.128906 3.21875 0 2.59375 0 C 1.976562 0 1.550781 -0.128906 1.3125 -0.390625 C 1.082031 -0.660156 0.96875 -1.160156 0.96875 -1.890625 L 0.96875 -11.734375 C 0.96875 -12.148438 0.992188 -12.488281 1.046875 -12.75 C 1.109375 -13.019531 1.210938 -13.222656 1.359375 -13.359375 C 1.515625 -13.503906 1.726562 -13.601562 2 -13.65625 C 2.269531 -13.71875 2.628906 -13.75 3.078125 -13.75 L 13.515625 -13.75 C 13.941406 -13.75 14.289062 -13.722656 14.5625 -13.671875 C 14.832031 -13.628906 15.039062 -13.53125 15.1875 -13.375 C 15.34375 -13.226562 15.441406 -13.015625 15.484375 -12.734375 C 15.535156 -12.460938 15.5625 -12.097656 15.5625 -11.640625 Z M 15.5625 -1.03125 "/></g></g><g style="fill:#53ae94;fill-opacity:1;"><g transform="translate(41.267885, 20.685486)"><path style="stroke:none" d="M 4.1875 -1.4375 C 4.1875 -0.9375 4.054688 -0.570312 3.796875 -0.34375 C 3.546875 -0.113281 3.140625 0 2.578125 0 C 1.992188 0 1.578125 -0.109375 1.328125 -0.328125 C 1.085938 -0.546875 0.96875 -0.914062 0.96875 -1.4375 L 0.96875 -12.75 C 0.96875 -13.457031 1.265625 -13.8125 1.859375 -13.8125 C 2.398438 -13.8125 2.671875 -13.445312 2.671875 -12.71875 L 2.671875 -10.09375 C 2.671875 -9.789062 2.675781 -9.539062 2.6875 -9.34375 C 2.707031 -9.15625 2.738281 -9.003906 2.78125 -8.890625 C 2.820312 -8.785156 2.882812 -8.695312 2.96875 -8.625 C 3.050781 -8.5625 3.160156 -8.503906 3.296875 -8.453125 L 3.5 -8.375 C 3.757812 -8.257812 3.9375 -8.125 4.03125 -7.96875 C 4.132812 -7.8125 4.1875 -7.5625 4.1875 -7.21875 Z M 4.1875 -1.4375 "/></g></g><g style="fill:#53ae94;fill-opacity:1;"><g transform="translate(46.128228, 20.685486)"><path style="stroke:none" d="M 11.171875 -1.09375 C 11.171875 -0.65625 11.101562 -0.335938 10.96875 -0.140625 C 10.84375 0.046875 10.625 0.140625 10.3125 0.140625 C 9.988281 0.140625 9.757812 0.046875 9.625 -0.140625 C 9.5 -0.335938 9.4375 -0.660156 9.4375 -1.109375 L 9.4375 -10.484375 C 9.4375 -10.804688 9.414062 -11.066406 9.375 -11.265625 C 9.332031 -11.460938 9.25 -11.613281 9.125 -11.71875 C 9 -11.832031 8.828125 -11.910156 8.609375 -11.953125 C 8.390625 -11.992188 8.101562 -12.015625 7.75 -12.015625 L 4.28125 -12.015625 C 3.96875 -12.015625 3.707031 -11.992188 3.5 -11.953125 C 3.289062 -11.910156 3.128906 -11.84375 3.015625 -11.75 C 2.898438 -11.65625 2.820312 -11.523438 2.78125 -11.359375 C 2.738281 -11.191406 2.71875 -10.984375 2.71875 -10.734375 L 2.71875 -9.96875 C 2.71875 -9.46875 2.75 -9.113281 2.8125 -8.90625 C 2.882812 -8.707031 3.039062 -8.5625 3.28125 -8.46875 L 3.5 -8.375 C 3.78125 -8.257812 3.96875 -8.101562 4.0625 -7.90625 C 4.15625 -7.71875 4.203125 -7.382812 4.203125 -6.90625 L 4.203125 -2.015625 C 4.203125 -1.617188 4.175781 -1.289062 4.125 -1.03125 C 4.082031 -0.769531 4 -0.5625 3.875 -0.40625 C 3.757812 -0.257812 3.597656 -0.15625 3.390625 -0.09375 C 3.191406 -0.03125 2.9375 0 2.625 0 C 2.15625 0 1.800781 -0.0625 1.5625 -0.1875 C 1.320312 -0.320312 1.160156 -0.523438 1.078125 -0.796875 C 1.035156 -0.921875 1.003906 -1.078125 0.984375 -1.265625 C 0.972656 -1.453125 0.96875 -1.722656 0.96875 -2.078125 L 0.96875 -11.640625 C 0.96875 -12.078125 0.988281 -12.429688 1.03125 -12.703125 C 1.082031 -12.984375 1.175781 -13.195312 1.3125 -13.34375 C 1.457031 -13.5 1.65625 -13.601562 1.90625 -13.65625 C 2.15625 -13.71875 2.484375 -13.75 2.890625 -13.75 L 9.09375 -13.75 C 9.519531 -13.75 9.863281 -13.722656 10.125 -13.671875 C 10.394531 -13.628906 10.609375 -13.535156 10.765625 -13.390625 C 10.921875 -13.253906 11.023438 -13.0625 11.078125 -12.8125 C 11.140625 -12.570312 11.171875 -12.257812 11.171875 -11.875 Z M 11.171875 -1.09375 "/></g></g><g style="fill:#53ae94;fill-opacity:1;"><g transform="translate(58.237908, 20.685486)"><path style="stroke:none" d="M 4.1875 -1.4375 C 4.1875 -0.9375 4.054688 -0.570312 3.796875 -0.34375 C 3.546875 -0.113281 3.140625 0 2.578125 0 C 1.992188 0 1.578125 -0.109375 1.328125 -0.328125 C 1.085938 -0.546875 0.96875 -0.914062 0.96875 -1.4375 L 0.96875 -12.75 C 0.96875 -13.457031 1.265625 -13.8125 1.859375 -13.8125 C 2.398438 -13.8125 2.671875 -13.445312 2.671875 -12.71875 L 2.671875 -10.09375 C 2.671875 -9.789062 2.675781 -9.539062 2.6875 -9.34375 C 2.707031 -9.15625 2.738281 -9.003906 2.78125 -8.890625 C 2.820312 -8.785156 2.882812 -8.695312 2.96875 -8.625 C 3.050781 -8.5625 3.160156 -8.503906 3.296875 -8.453125 L 3.5 -8.375 C 3.757812 -8.257812 3.9375 -8.125 4.03125 -7.96875 C 4.132812 -7.8125 4.1875 -7.5625 4.1875 -7.21875 Z M 4.1875 -1.4375 "/></g></g><g style="fill:#53ae94;fill-opacity:1;"><g transform="translate(63.098251, 20.685486)"><path style="stroke:none" d="M 11.171875 -1.09375 C 11.171875 -0.65625 11.101562 -0.335938 10.96875 -0.140625 C 10.84375 0.046875 10.625 0.140625 10.3125 0.140625 C 9.988281 0.140625 9.757812 0.046875 9.625 -0.140625 C 9.5 -0.335938 9.4375 -0.660156 9.4375 -1.109375 L 9.4375 -10.484375 C 9.4375 -10.804688 9.414062 -11.066406 9.375 -11.265625 C 9.332031 -11.460938 9.25 -11.613281 9.125 -11.71875 C 9 -11.832031 8.828125 -11.910156 8.609375 -11.953125 C 8.390625 -11.992188 8.101562 -12.015625 7.75 -12.015625 L 4.28125 -12.015625 C 3.96875 -12.015625 3.707031 -11.992188 3.5 -11.953125 C 3.289062 -11.910156 3.128906 -11.84375 3.015625 -11.75 C 2.898438 -11.65625 2.820312 -11.523438 2.78125 -11.359375 C 2.738281 -11.191406 2.71875 -10.984375 2.71875 -10.734375 L 2.71875 -9.96875 C 2.71875 -9.46875 2.75 -9.113281 2.8125 -8.90625 C 2.882812 -8.707031 3.039062 -8.5625 3.28125 -8.46875 L 3.5 -8.375 C 3.78125 -8.257812 3.96875 -8.101562 4.0625 -7.90625 C 4.15625 -7.71875 4.203125 -7.382812 4.203125 -6.90625 L 4.203125 -2.015625 C 4.203125 -1.617188 4.175781 -1.289062 4.125 -1.03125 C 4.082031 -0.769531 4 -0.5625 3.875 -0.40625 C 3.757812 -0.257812 3.597656 -0.15625 3.390625 -0.09375 C 3.191406 -0.03125 2.9375 0 2.625 0 C 2.15625 0 1.800781 -0.0625 1.5625 -0.1875 C 1.320312 -0.320312 1.160156 -0.523438 1.078125 -0.796875 C 1.035156 -0.921875 1.003906 -1.078125 0.984375 -1.265625 C 0.972656 -1.453125 0.96875 -1.722656 0.96875 -2.078125 L 0.96875 -11.640625 C 0.96875 -12.078125 0.988281 -12.429688 1.03125 -12.703125 C 1.082031 -12.984375 1.175781 -13.195312 1.3125 -13.34375 C 1.457031 -13.5 1.65625 -13.601562 1.90625 -13.65625 C 2.15625 -13.71875 2.484375 -13.75 2.890625 -13.75 L 9.09375 -13.75 C 9.519531 -13.75 9.863281 -13.722656 10.125 -13.671875 C 10.394531 -13.628906 10.609375 -13.535156 10.765625 -13.390625 C 10.921875 -13.253906 11.023438 -13.0625 11.078125 -12.8125 C 11.140625 -12.570312 11.171875 -12.257812 11.171875 -11.875 Z M 11.171875 -1.09375 "/></g></g><g style="fill:#53ae94;fill-opacity:1;"><g transform="translate(75.207931, 20.685486)"><path style="stroke:none" d="M 11.375 -1.765625 C 11.375 -1.410156 11.34375 -1.117188 11.28125 -0.890625 C 11.21875 -0.671875 11.113281 -0.492188 10.96875 -0.359375 C 10.832031 -0.234375 10.640625 -0.140625 10.390625 -0.078125 C 10.140625 -0.0234375 9.828125 0 9.453125 0 L 3.078125 0 C 2.648438 0 2.296875 -0.0234375 2.015625 -0.078125 C 1.742188 -0.140625 1.53125 -0.238281 1.375 -0.375 C 1.226562 -0.507812 1.125 -0.695312 1.0625 -0.9375 C 1 -1.1875 0.96875 -1.515625 0.96875 -1.921875 L 0.96875 -11.953125 C 0.96875 -12.640625 1.097656 -13.109375 1.359375 -13.359375 C 1.617188 -13.617188 2.113281 -13.75 2.84375 -13.75 L 9.4375 -13.75 C 9.832031 -13.75 10.15625 -13.71875 10.40625 -13.65625 C 10.664062 -13.601562 10.867188 -13.507812 11.015625 -13.375 C 11.160156 -13.238281 11.257812 -13.039062 11.3125 -12.78125 C 11.363281 -12.53125 11.390625 -12.210938 11.390625 -11.828125 L 11.390625 -10.796875 C 11.390625 -9.941406 11.101562 -9.515625 10.53125 -9.515625 C 10.238281 -9.515625 10.023438 -9.597656 9.890625 -9.765625 C 9.753906 -9.941406 9.679688 -10.234375 9.671875 -10.640625 C 9.648438 -10.921875 9.625 -11.148438 9.59375 -11.328125 C 9.5625 -11.515625 9.492188 -11.65625 9.390625 -11.75 C 9.285156 -11.84375 9.132812 -11.90625 8.9375 -11.9375 C 8.738281 -11.976562 8.472656 -12 8.140625 -12 L 7.5 -12.015625 L 4.328125 -12.015625 C 3.953125 -12.015625 3.65625 -11.992188 3.4375 -11.953125 C 3.226562 -11.910156 3.066406 -11.8125 2.953125 -11.65625 C 2.847656 -11.507812 2.78125 -11.296875 2.75 -11.015625 C 2.726562 -10.734375 2.71875 -10.34375 2.71875 -9.84375 C 2.71875 -9.601562 2.722656 -9.40625 2.734375 -9.25 C 2.753906 -9.101562 2.785156 -8.976562 2.828125 -8.875 C 2.878906 -8.78125 2.945312 -8.703125 3.03125 -8.640625 C 3.125 -8.578125 3.25 -8.515625 3.40625 -8.453125 C 3.625 -8.335938 3.773438 -8.25 3.859375 -8.1875 C 3.953125 -8.125 4.019531 -8.039062 4.0625 -7.9375 C 4.15625 -7.757812 4.203125 -7.53125 4.203125 -7.25 L 4.203125 -3.4375 C 4.203125 -2.875 4.242188 -2.484375 4.328125 -2.265625 C 4.410156 -2.054688 4.582031 -1.921875 4.84375 -1.859375 C 4.957031 -1.828125 5.101562 -1.800781 5.28125 -1.78125 C 5.457031 -1.769531 5.75 -1.757812 6.15625 -1.75 C 6.34375 -1.75 6.515625 -1.75 6.671875 -1.75 C 6.835938 -1.75 7 -1.742188 7.15625 -1.734375 L 8.125 -1.734375 C 8.476562 -1.734375 8.757812 -1.753906 8.96875 -1.796875 C 9.175781 -1.835938 9.328125 -1.945312 9.421875 -2.125 C 9.523438 -2.300781 9.585938 -2.570312 9.609375 -2.9375 C 9.628906 -3.300781 9.640625 -3.804688 9.640625 -4.453125 C 9.640625 -4.921875 9.628906 -5.296875 9.609375 -5.578125 C 9.585938 -5.859375 9.535156 -6.070312 9.453125 -6.21875 C 9.378906 -6.363281 9.265625 -6.460938 9.109375 -6.515625 C 8.953125 -6.566406 8.753906 -6.597656 8.515625 -6.609375 L 8.25 -6.640625 C 7.84375 -6.660156 7.554688 -6.734375 7.390625 -6.859375 C 7.234375 -6.992188 7.15625 -7.207031 7.15625 -7.5 C 7.15625 -8.09375 7.566406 -8.390625 8.390625 -8.390625 L 9.671875 -8.390625 C 10.328125 -8.390625 10.773438 -8.257812 11.015625 -8 C 11.253906 -7.738281 11.375 -7.242188 11.375 -6.515625 Z M 11.375 -1.765625 "/></g></g></g></svg>